/* XPM */
static char *GDALogo__[] = {
/* columns rows colors chars-per-pixel */
"48 48 227 2",
"   c #6ABE63",
".  c #6BBE64",
"X  c #6BBF65",
"o  c #6FC068",
"O  c #6FC169",
"+  c #72C16B",
"@  c #73C26C",
"#  c #74C36D",
"$  c #75C36E",
"%  c #77C370",
"&  c #76C470",
"*  c #78C472",
"=  c #79C572",
"-  c #7AC575",
";  c #7BC676",
":  c #7CC677",
">  c #7EC777",
",  c #EB9320",
"<  c #EB9321",
"1  c #EB9322",
"2  c #EB9421",
"3  c #EB9524",
"4  c #EB9525",
"5  c #EB9627",
"6  c #EC9729",
"7  c #EC992D",
"8  c #EC9A2F",
"9  c #EC9B2F",
"0  c #ED9B30",
"q  c #EC9B32",
"w  c #EEA13D",
"e  c #EEA342",
"r  c #EEA442",
"t  c #EEA545",
"y  c #EEA546",
"u  c #EFA749",
"i  c #EFA74B",
"p  c #EEA94D",
"a  c #EFAA50",
"s  c #EFAC52",
"d  c #F1B566",
"f  c #F2B86D",
"g  c #F2BF7A",
"h  c #F3BF7B",
"j  c #5F52A2",
"k  c #6053A2",
"l  c #6053A3",
"z  c #6154A3",
"x  c #6255A3",
"c  c #6255A4",
"v  c #6256A4",
"b  c #6356A4",
"n  c #6357A4",
"m  c #6559A5",
"M  c #6659A6",
"N  c #675BA6",
"B  c #685BA7",
"V  c #6A5DA7",
"C  c #6B5FA9",
"Z  c #6C60A9",
"A  c #6C60AA",
"S  c #6D61AA",
"D  c #6D62AA",
"F  c #6F63AB",
"G  c #7165AC",
"H  c #7166AC",
"J  c #7469AF",
"K  c #756AAF",
"L  c #776BB0",
"P  c #7A6FB1",
"I  c #7A6FB2",
"U  c #7A70B3",
"Y  c #7B71B3",
"T  c #7C72B3",
"R  c #7D72B3",
"E  c #7E74B4",
"W  c #8176B5",
"Q  c #877DB8",
"!  c #887EBA",
"~  c #8A80BA",
"^  c #8A81BB",
"/  c #8D84BD",
"(  c #9188BF",
")  c #86CB81",
"_  c #89CB84",
"`  c #8ACC84",
"'  c #8FCE8A",
"]  c #90D08B",
"[  c #93D08D",
"{  c #98D394",
"}  c #9BD497",
"|  c #9CD497",
" . c #A3D79F",
".. c #ACDBA8",
"X. c #AEDCAA",
"o. c #BDE3BA",
"O. c #F3C587",
"+. c #F5C88E",
"@. c #F4C98E",
"#. c #F5CB92",
"$. c #F5CE9A",
"%. c #F5CE9B",
"&. c #F6CF9C",
"*. c #F6D09F",
"=. c #F6D1A0",
"-. c #F7D3A5",
";. c #F7D3A6",
":. c #F6D5A8",
">. c #F7D5A8",
",. c #F7D6AA",
"<. c #F7D6AB",
"1. c #F7D7AD",
"2. c #F8DAB5",
"3. c #F8DBB5",
"4. c #C0E4BD",
"5. c #968EC2",
"6. c #978FC3",
"7. c #9790C3",
"8. c #9991C3",
"9. c #9C94C5",
"0. c #9D95C6",
"q. c #9D96C6",
"w. c #A29BCA",
"e. c #A39BCA",
"r. c #A49DCA",
"t. c #A69FCB",
"y. c #AFA9D2",
"u. c #B0AAD1",
"i. c #B1ABD2",
"p. c #B1ACD2",
"a. c #B4AED3",
"s. c #B5B0D4",
"d. c #BBB6D7",
"f. c #BDB7D9",
"g. c #BDB8D8",
"h. c #BFB9D9",
"j. c #C5C1DD",
"k. c #C8C3DF",
"l. c #C6E6C5",
"z. c #C8E8C6",
"x. c #C9E8C7",
"c. c #CFEACD",
"v. c #D2ECD1",
"b. c #D4ECD2",
"n. c #D7EED6",
"m. c #DAEFD7",
"M. c #DAEFD9",
"N. c #DCF0DA",
"B. c #FAE4C7",
"V. c #FAE9D2",
"C. c #FBEAD4",
"Z. c #FBEBD5",
"A. c #FBECD9",
"S. c #FCEEDB",
"D. c #FCEFDD",
"F. c #C8C4E0",
"G. c #CCC8E1",
"H. c #CFCAE3",
"J. c #CECBE4",
"K. c #D1CEE4",
"L. c #D3D0E6",
"P. c #D9D6E8",
"I. c #DDDAEB",
"U. c #DFDCEC",
"Y. c #E1DFED",
"T. c #E1DFEE",
"R. c #E2E1EE",
"E. c #E4E1EF",
"W. c #E5E3EF",
"Q. c #E2F3E1",
"!. c #E4F4E3",
"~. c #E6F4E5",
"^. c #E8F5E7",
"/. c #E8F6E7",
"(. c #EAF5E8",
"). c #EBF6EA",
"_. c #EBF7EA",
"`. c #EEF8ED",
"'. c #FDF1E2",
"]. c #FDF2E6",
"[. c #FDF4E8",
"{. c #FDF6EC",
"}. c #FDF7EE",
"|. c #E5E3F0",
" X c #E8E6F2",
".X c #E9E7F2",
"XX c #EAE8F2",
"oX c #EAE8F3",
"OX c #EEEDF5",
"+X c #EEEDF6",
"@X c #EFEDF6",
"#X c #F1EFF7",
"$X c #F0F9F0",
"%X c #F6FBF6",
"&X c #FEF8F1",
"*X c #FEF9F2",
"=X c #F3F2F8",
"-X c #F7F6FA",
";X c #F7F7FA",
":X c #F9F9FB",
">X c #F9FCF9",
",X c #F9FDF9",
"<X c #FEFCFA",
"1X c #FFFCFA",
"2X c #FEFCFB",
"3X c #FEFDFB",
"4X c #FFFDFB",
"5X c #F9F8FC",
"6X c #F9F9FC",
"7X c #FAFAFC",
"8X c #FBFBFD",
"9X c #FCFBFD",
"0X c #FCFDFC",
"qX c #FCFCFD",
"wX c #FDFDFD",
"eX c #FEFDFC",
"rX c #FDFEFD",
"tX c #FFFEFC",
"yX c #FFFEFD",
"uX c #FCFCFE",
"iX c #FDFDFE",
"pX c #FEFEFE",
"aX c #FFFEFE",
"sX c #FEFFFE",
"dX c #FFFFFE",
"fX c #FEFEFF",
"gX c gray100",
/* pixels */
"gXgXgXgXgXgXgXgXgXgXgXgXgXgXgXgXgXgXgXgXgXgXgXgXgXgXgXgXgXgXgXgXgXgXgXgXgXgXgXgXgXgXgXgXgXgXgXgX",
"gXgXgXgXgXgXgXgXgXgXgXgXgXgXgXgXgXgXgXgXgXgXgXgXgXgXgXgXgXgXgXgXgXgXgXgXgXgXgXgXgXgXgXgXgXgXgXgX",
"gXgXgXgXgXgXgXgXgXgXgXgXgXgXgXgXgXgXgXgXgXgXgXgXgXgXgXgXgXgXgXgXgXgXgXgXgXgXgXgXgXgXgXgXgXgXgXgX",
"gXgXgXgXgXgXgXgXgXgXgXgXgXgXgXgXgXT.U..X=X;XgXgXgXgXgXgXgXgXgXgXgXgXgXgXgXgXgXgXgXgXgXgXgXgXgXgX",
"gXgXgXgXgXgXgXgXgXgXgXgXgXgXgXgX( j j j j l v M J Q .XgXgXgXgXgXgXgXgXgXgXgXgXgXgXgXgXgXgXgXgXgX",
"gXgXgXgXgXgXgXgXgXgXgXgXgXgXgXgXK j j j j j j j j j j w.gXgXgX:         + | ,XgXgXgXgXgXgXgXgXgX",
"gXgXgXgXgXgXgXgXgXgXgXgXgXgXgXgXJ.j j j j j j j j j j j k.gXgX_             ; gXgXgXgXgXgXgXgXgX",
"gXgXgXgXgXgXgXgXgXgXgXgXgXgXgXgXgXx j j j j j j j j j j M gXgX^.              N.gXgXgXgXgXgXgXgX",
"gXgXgXgXgXgXgXgXgXgXgXgXgXgXgXgXgXh.j j j j j j j j j j j K.gXgX;             ; gXgXgXgXgXgXgXgX",
"gXgXgXgXgXgXgXgXgXgXgXgXgXgXgXgXgXgXj j j j j j j j j j j S gXgXm.              v.gXgXgXgXgXgXgX",
"gXgXgXgXgXgXgXgXgXgXgXgXgXgXgXgXgXgXw.l j j j j j j j j j j R.gXgX              + gXgXgXgXgXgXgX",
"gXgXgXgXgXgXgXgXgXgXgXgXgXgXgXgXgXgXOXj j j j j j j j j j j K gXgXX.              n.gXgXgXgXgXgX",
"gXgXgXgXgXgXgXgXgXgXgXgXgXgXgXgXgXgXgXC j j j j j j j j j j j P.gXQ.              ] gXgXgXgXgXgX",
"gXgXgXgXgXgXgXgXgXgXgXgXgXgXgXgXgXgXgXY j j j j j j j j j j j u.gX_.            . ..gXgXgXgXgXgX",
"gXgXgXgXgXgXgXgXgXgXgXgXgXgXgXgXgXgXgXE j j j j j j j j j x G OXgX^.    $ l.gXgXgXgXgXgXgXgXgXgX",
"gXgXgXgXgXgXgXgXgXgXgXgXgXgXgXgXgXgXgXG j j j j I u..XgXgXgXgXgXgXo.  % gXgXgXgXgXgXgXgXgXgXgXgX",
"gXgXgXgXgXgXgXgXgXgXgXgXgXgXgXgXgXgXOXj j j j T.gXgXgXgXgXgXgXgX,X.   c.gXgXgXgXC.#.f {.gXgXgXgX",
"gXgXgXgXgXgXgXgXgXgXgXgXgXgXgXgXgXgXI j j G :XgXgXgXgXgXgXgXgXQ.$     gXgX$., , , , , , A.gXgXgX",
"gXgXgXgXgXgXgXgXgXgXgXgXgXgXgXgXgXr.j j j gXgXgXgXgX:X!.b. .o         gXgXp , , , , , , t gXgXgX",
"gXgXgXgXgXgXgXgXgXgXgXgXgXgXgX:XQ j j j T gXgXgXc.$                   gXgX-., , , , , , , }.gXgX",
"gXgXgXgXgXgXgXgXgXgXgXgXgXI.6.j j j j j a.gXgXgX                      o.gXgX3 , , , , , , p gXgX",
"gXgXgXgXgXgXgXgX.XJ.p.S j j j j j j j j j.gXgXgX                      ) gXgX&., , , , , , , D.gX",
"gXgXgX|.8.W x j j j l l j j j j j j j j f.gXgXgX`                       gXgX<X, , , , , , , u gX",
"gX9XK j j j j j j j j j j j j j j j j j 6.gXgXgX(.                      { gXgXf , , , , , , , gX",
"gXI j j j j j j j j j j j j j j j j j j M gXgXgXgX[                       `.gXC., , , , , , 3 gX",
"gXl j j j j j j j j j j j j j j j j j j j 8XgXgXgX%X                    . } gX<X, , , , 6 1.&XgX",
"gXC l j j j j j j j j j j j j j j j j j j / gXgXgXgX`                       gXgX8 , , >.gXgXgXgX",
"gXj.l j j j j j j j j j j j j j j j j j j j #XgXgXgX`.                      gXgX0 , 3.gXgXgXgXgX",
"gXgXx j j j j j j j j j j j j j j j j j j j ^ gXgXgXgXO                 . x.gX<X, q gXgXgXgXgXgX",
"gXgXa.j j j j j j j j j j j j j j j j j j j j 9XgXgXgX~.            ' M.gXgXgXB., h gXgXgXgXgXgX",
"gXgXgXj j j j j j j j j j j j j j j j j j j j 0.gXgXgXgX(.=   = l.gXgXgXgXgXgX3 , $.gXgXgXgXgXgX",
"gXgXgXu.j j j j j j j j j j j j j j j j j j j S gXgXgXgXgXgXgXgXgXgXgXgXgXgXd , , $.gXgXgXgXgXgX",
"gXgXgX8Xx j j j j j j j j j j j j j j j j j j Y gXgXgXgXgXgXgXgXgXgXgXgX'.t , , , g gXgXgXgXgXgX",
"gXgXgXgXy.j j j j j j j j j j j j j j j j j j R.gXgXgXgXgXgXgXgXgXgXS.e , , , , , w gXgXgXgXgXgX",
"gXgXgXgXgXj j j j j j j j j j j j j j j j ! W.gXgXgXgXgXgXgXgXgX].r , , , , , , , , 3XgXgXgXgXgX",
"gXgXgXgXgXt.j j j j j j j j j j j j C d.gXgXgXgXgXgXgXgXgXgXgXgX3 , , , , , , , , , +.gXgXgXgXgX",
"gXgXgXgXgX8Xl j j j j j j j j M 7.;XgXgXgXgXgXgXgXgXgXgXgXgXgX{., , , , , , , , , , 3 3XgXgXgXgX",
"gXgXgXgXgXgXI.j j j j j j V K.gXgXgXgXgXgXgXgXgXgXgXgXgXgXgXgX&X, , , , , , , , , , , 1.gXgXgXgX",
"gXgXgXgXgXgXgXgXG.0.9.g.;XgXgXgXgXgXgXgXgXgXgXgXgXgXgXgXgXgXgXgX7 , , , , , , , , , , , gXgXgXgX",
"gXgXgXgXgXgXgXgXgXgXgXgXgXgXgXgXgXgXgXgXgXgXgXgXgXgXgXgXgXgXgXgX3., , , , , , , , , , , >.gXgXgX",
"gXgXgXgXgXgXgXgXgXgXgXgXgXgXgXgXgXgXgXgXgXgXgXgXgXgXgXgXgXgXgXgXgX2 , , , , , , , , , , O.gXgXgX",
"gXgXgXgXgXgXgXgXgXgXgXgXgXgXgXgXgXgXgXgXgXgXgXgXgXgXgXgXgXgXgXgXgX>., 2 , , , , , , , , -.gXgXgX",
"gXgXgXgXgXgXgXgXgXgXgXgXgXgXgXgXgXgXgXgXgXgXgXgXgXgXgXgXgXgXgXgXgX3X7 2 , , , , , , , u gXgXgXgX",
"gXgXgXgXgXgXgXgXgXgXgXgXgXgXgXgXgXgXgXgXgXgXgXgXgXgXgXgXgXgXgXgXgXgX=., , , , , , , +.gXgXgXgXgX",
"gXgXgXgXgXgXgXgXgXgXgXgXgXgXgXgXgXgXgXgXgXgXgXgXgXgXgXgXgXgXgXgXgXgXgX, , , , , 3 V.gXgXgXgXgXgX",
"gXgXgXgXgXgXgXgXgXgXgXgXgXgXgXgXgXgXgXgXgXgXgXgXgXgXgXgXgXgXgXgXgXgXgX>., , , s 3XgXgXgXgXgXgXgX",
"gXgXgXgXgXgXgXgXgXgXgXgXgXgXgXgXgXgXgXgXgXgXgXgXgXgXgXgXgXgXgXgXgXgXgXgX1.t &.gXgXgXgXgXgXgXgXgX",
"gXgXgXgXgXgXgXgXgXgXgXgXgXgXgXgXgXgXgXgXgXgXgXgXgXgXgXgXgXgXgXgXgXgXgXgXgXgXgXgXgXgXgXgXgXgXgXgX"
};
