/* XPM */
static char *GDALogo__[] = {
/* columns rows colors chars-per-pixel */
"64 64 239 2",
"   c #6ABE63",
".  c #6BBE64",
"X  c #6CBF65",
"o  c #6DBF66",
"O  c #6DC066",
"+  c #6EC067",
"@  c #6FC068",
"#  c #71C169",
"$  c #72C16A",
"%  c #72C16B",
"&  c #72C26B",
"*  c #73C26C",
"=  c #76C370",
"-  c #79C573",
";  c #7BC574",
":  c #7CC777",
">  c #7DC877",
",  c #7EC878",
"<  c #EB9320",
"1  c #EB9321",
"2  c #EB9422",
"3  c #EB9423",
"4  c #EB9523",
"5  c #EB9525",
"6  c #EB9526",
"7  c #EB9628",
"8  c #EB9728",
"9  c #EB972A",
"0  c #EC9728",
"q  c #EC9828",
"w  c #EC992E",
"e  c #ED9A31",
"r  c #ED9C32",
"t  c #ED9C34",
"y  c #ED9D34",
"u  c #ED9E38",
"i  c #EEA03C",
"p  c #EEA13D",
"a  c #EEA240",
"s  c #EEA341",
"d  c #EEA442",
"f  c #EEA543",
"g  c #EEA648",
"h  c #EFAA51",
"j  c #EEAC54",
"k  c #F0AD57",
"l  c #F0AF58",
"z  c #F0AE5A",
"x  c #F0B15F",
"c  c #F1B363",
"v  c #F1B464",
"b  c #F1B567",
"n  c #F2B769",
"m  c #F1B76A",
"M  c #F2B76C",
"N  c #82C97C",
"B  c #82CA7D",
"V  c #5F52A2",
"C  c #5F53A2",
"Z  c #6053A2",
"A  c #6053A3",
"S  c #6154A3",
"D  c #6255A4",
"F  c #6356A4",
"G  c #6356A5",
"H  c #6457A5",
"J  c #6458A5",
"K  c #6558A5",
"L  c #665AA7",
"P  c #675AA7",
"I  c #675BA7",
"U  c #6A5EA8",
"Y  c #6D60AA",
"T  c #6D61AA",
"R  c #6E62AB",
"E  c #6E63AB",
"W  c #7064AC",
"Q  c #7368AD",
"!  c #766BAF",
"~  c #776CB0",
"^  c #786DB1",
"/  c #7A6EB0",
"(  c #7A6FB2",
")  c #7B70B2",
"_  c #7C72B2",
"`  c #7E73B4",
"'  c #7F75B5",
"]  c #8279B6",
"[  c #847AB7",
"{  c #847AB8",
"}  c #867CB8",
"|  c #877DB9",
" . c #887FB9",
".. c #887FBB",
"X. c #8F85BD",
"o. c #8F86BE",
"O. c #86CC80",
"+. c #8ACE86",
"@. c #8BCE86",
"#. c #95D390",
"$. c #98D393",
"%. c #99D495",
"&. c #9BD597",
"*. c #9FD79A",
"=. c #A2D79E",
"-. c #A3D89F",
";. c #A6D9A1",
":. c #A9DBA5",
">. c #ADDCA9",
",. c #B0DDAD",
"<. c #B1DFAF",
"1. c #B3DEAF",
"2. c #B9E1B6",
"3. c #B9E2B6",
"4. c #BAE3B7",
"5. c #F3C181",
"6. c #F4C182",
"7. c #F4C486",
"8. c #F5C589",
"9. c #F4C78B",
"0. c #F5C98E",
"q. c #F6D09D",
"w. c #F8DBB5",
"e. c #F8DCB5",
"r. c #F8DCB6",
"t. c #F8DDB8",
"y. c #F9DEBD",
"u. c #C2E5BF",
"i. c #958CC1",
"p. c #9A92C4",
"a. c #9C94C4",
"s. c #A199C8",
"d. c #A49CCA",
"f. c #A59ECC",
"g. c #ADA7D0",
"h. c #B0AAD1",
"j. c #B1AAD2",
"k. c #B0AAD3",
"l. c #B1AAD3",
"z. c #B4AED4",
"x. c #B7B1D5",
"c. c #BEB8D9",
"v. c #C3BFDC",
"b. c #C3BEDD",
"n. c #C5E6C2",
"m. c #C8E7C4",
"M. c #CAE8C8",
"N. c #D2EBD1",
"B. c #D3EBD2",
"V. c #D3ECD0",
"C. c #D9EFD7",
"Z. c #DDF0DB",
"A. c #F9E2C1",
"S. c #FAE2C5",
"D. c #FBEDD9",
"F. c #FBEDDB",
"G. c #E0F2DF",
"H. c #CAC4E0",
"J. c #CAC5E0",
"K. c #CCC8E1",
"L. c #CFCBE3",
"P. c #D0CCE4",
"I. c #D6D2E7",
"U. c #D7D2E7",
"Y. c #D8D5E9",
"T. c #DAD7E9",
"R. c #DBD8EA",
"E. c #DDDAEB",
"W. c #DEDBEC",
"Q. c #DFDCEC",
"!. c #DFDDEC",
"~. c #DFDDED",
"^. c #E3E1EF",
"/. c #E5F4E4",
"(. c #E6F4E5",
"). c #E8F5E7",
"_. c #EFF8EE",
"`. c #FCF1E3",
"'. c #FDF1E3",
"]. c #FDF2E6",
"[. c #FDF4E7",
"{. c #FDF5EA",
"}. c #FDF5EB",
"|. c #FDF5ED",
" X c #FEF5ED",
".X c #FDF6EE",
"XX c #FDF7EF",
"oX c #F0F8EF",
"OX c #FDF8EF",
"+X c #E5E3F0",
"@X c #E6E3F0",
"#X c #E9E7F2",
"$X c #EBE9F3",
"%X c #EBEAF3",
"&X c #EEEDF5",
"*X c #F1F0F6",
"=X c #F2F0F7",
"-X c #F3F9F3",
";X c #F4FAF3",
":X c #F5FBF4",
">X c #F6FBF5",
",X c #F6FCF6",
"<X c #FDF8F0",
"1X c #FEF8F1",
"2X c #FEFAF5",
"3X c #F8FCF7",
"4X c #F3F2F8",
"5X c #F4F3F8",
"6X c #F6F5F9",
"7X c #F7F7FA",
"8X c #F8F8FB",
"9X c #F9F9FB",
"0X c #F9FCF8",
"qX c #FAFDF9",
"wX c #FBFDFB",
"eX c #FAFEFA",
"rX c #FEFCF8",
"tX c #FEFCF9",
"yX c #FFFDFA",
"uX c #FAF9FC",
"iX c #FAFAFC",
"pX c #FBFBFC",
"aX c #FBFBFD",
"sX c #FCFBFD",
"dX c #FCFDFC",
"fX c #FDFEFC",
"gX c #FDFEFD",
"hX c #FEFEFC",
"jX c #FFFEFC",
"kX c #FFFEFD",
"lX c #FCFCFE",
"zX c #FDFDFE",
"xX c #FEFDFE",
"cX c #FEFEFE",
"vX c #FFFEFE",
"bX c #FEFFFE",
"nX c #FFFFFE",
"mX c #FEFEFF",
"MX c gray100",
/* pixels */
"MXMXMXMXMXMXMXMXMXMXMXMXMXMXMXMXMXMXMXMXMXMXMXMXMXMXMXMXMXMXMXMXMXMXMXMXMXMXMXMXMXMXMXMXMXMXMXMXMXMXMXMXMXMXMXMXMXMXMXMXMXMXMXMX",
"MXMXMXMXMXMXMXMXMXMXMXMXMXMXMXMXMXMXMXMXMXMXMXMXMXMXMXMXMXMXMXMXMXMXMXMXMXMXMXMXMXMXMXMXMXMXMXMXMXMXMXMXMXMXMXMXMXMXMXMXMXMXMXMX",
"MXMXMXMXMXMXMXMXMXMXMXMXMXMXMXMXMXMXMXMXMXMXMXMXMXMXMXMXMXMXMXMXMXMXMXMXMXMXMXMXMXMXMXMXMXMXMXMXMXMXMXMXMXMXMXMXMXMXMXMXMXMXMXMX",
"MXMXMXMXMXMXMXMXMXMXMXMXMXMXMXMXMXMXMXMXMXMXMXMXMXMXMXMXMXMXMXMXMXMXMXMXMXMXMXMXMXMXMXMXMXMXMXMXMXMXMXMXMXMXMXMXMXMXMXMXMXMXMXMX",
"MXMXMXMXMXMXMXMXMXMXMXMXMXMXMXMXMXMXMXMXMXMXMXMXMXMXMXMXMXMXMXMXMXMXMXMXMXMXMXMXMXMXMXMXMXMXMXMXMXMXMXMXMXMXMXMXMXMXMXMXMXMXMXMX",
"MXMXMXMXMXMXMXMXMXMXMXMXMXMXMXMXMXMXMXMXMXMXF V V V V V G U E ` h.R.MXMXMXMXMXMXMXMXMXMXMXMXMXMXMXMXMXMXMXMXMXMXMXMXMXMXMXMXMXMX",
"MXMXMXMXMXMXMXMXMXMXMXMXMXMXMXMXMXMXMXMXMXh.V V V V V V V V V V V V V W MXMXMXMXMXMX, B +.:.M.;XqXMXMXMXMXMXMXMXMXMXMXMXMXMXMXMX",
"MXMXMXMXMXMXMXMXMXMXMXMXMXMXMXMXMXMXMXMXMXH.V V V V V V V V V V V V V V F MXMXMXMX#.            .   >.MXMXMXMXMXMXMXMXMXMXMXMXMX",
"MXMXMXMXMXMXMXMXMXMXMXMXMXMXMXMXMXMXMXMXMXMXV V V V V V V V V V V V V V V ) MXMXMXN.                  &.MXMXMXMXMXMXMXMXMXMXMXMX",
"MXMXMXMXMXMXMXMXMXMXMXMXMXMXMXMXMXMXMXMXMXMXs.V V V V V V V V V V V V V V V 6XMXMXMX                    :XMXMXMXMXMXMXMXMXMXMXMX",
"MXMXMXMXMXMXMXMXMXMXMXMXMXMXMXMXMXMXMXMXMXMXMXV V V V V V V V V V V V V V V E MXMXMX-.                  & MXMXMXMXMXMXMXMXMXMXMX",
"MXMXMXMXMXMXMXMXMXMXMXMXMXMXMXMXMXMXMXMXMXMXMXp.V V V V V V V V V V V V V V V 6XMXMXMX                    dXMXMXMXMXMXMXMXMXMXMX",
"MXMXMXMXMXMXMXMXMXMXMXMXMXMXMXMXMXMXMXMXMXMXMXMXV V V V V V V V V V V V V V V } MXMXMX;.                  +.MXMXMXMXMXMXMXMXMXMX",
"MXMXMXMXMXMXMXMXMXMXMXMXMXMXMXMXMXMXMXMXMXMXMXMXX.V V V V V V V V V V V V V V V pXMXMXqX                    MXMXMXMXMXMXMXMXMXMX",
"MXMXMXMXMXMXMXMXMXMXMXMXMXMXMXMXMXMXMXMXMXMXMXMXpXV V V V V V V V V V V V V V V ( MXMXMX,                   O.MXMXMXMXMXMXMXMXMX",
"MXMXMXMXMXMXMXMXMXMXMXMXMXMXMXMXMXMXMXMXMXMXMXMXMXV V V V V V V V V V V V V V V V MXMXMXC.                    3XMXMXMXMXMXMXMXMX",
"MXMXMXMXMXMXMXMXMXMXMXMXMXMXMXMXMXMXMXMXMXMXMXMXMX..V V V V V V V V V V V V V V V ] MXMXMX                    2.MXMXMXMXMXMXMXMX",
"MXMXMXMXMXMXMXMXMXMXMXMXMXMXMXMXMXMXMXMXMXMXMXMXMXL.V V V V V V V V V V V V V V V V MXMXMX                    2.MXMXMXMXMXMXMXMX",
"MXMXMXMXMXMXMXMXMXMXMXMXMXMXMXMXMXMXMXMXMXMXMXMXMXQ.V V V V V V V V V V V V V V V Z MXMXMX        . . = B 2.(.MXMXMXMXMXMXMXMXMX",
"MXMXMXMXMXMXMXMXMXMXMXMXMXMXMXMXMXMXMXMXMXMXMXMXMXY.V V V V V V V V V V V V Z K ~ iXMXMXMX      & _.MXMXMXMXMXMXMXMXMXMXMXMXMXMX",
"MXMXMXMXMXMXMXMXMXMXMXMXMXMXMXMXMXMXMXMXMXMXMXMXMXh.Z V V V V V Z ( v.&XMXMXMXMXMXMXMXMX(.    & MXMXMXMXMXMXMXMXMXMXMXMXMXMXMXMX",
"MXMXMXMXMXMXMXMXMXMXMXMXMXMXMXMXMXMXMXMXMXMXMXMXMXV V V V V V H.MXMXMXMXMXMXMXMXMXMXMXMX+     :XMXMXMXMXMXMXMXMXMXMXMXMXMXMXMXMX",
"MXMXMXMXMXMXMXMXMXMXMXMXMXMXMXMXMXMXMXMXMXMXMXMX*XZ V V V U MXMXMXMXMXMXMXMXMXMXMXMXMX%.      MXMXMX}.q.j 0 < < < 2 .XMXMXMXMXMX",
"MXMXMXMXMXMXMXMXMXMXMXMXMXMXMXMXMXMXMXMXMXMXMXMXV V V V F MXMXMXMXMXMXMXMXMXMXMXMX-Xo         MXMX<X< < < < < < < < < MXMXMXMXMX",
"MXMXMXMXMXMXMXMXMXMXMXMXMXMXMXMXMXMXMXMXMXMXMX) V V V V iXMXMXMXMXMXMXMXMX3X_.=.&             MXMXe.< < < < < < < < < 5.MXMXMXMX",
"MXMXMXMXMXMXMXMXMXMXMXMXMXMXMXMXMXMXMXMXMXpXR V V V V ! MXMXMXMXMX<.:                         MXMXtX< < < < < < < < < < MXMXMXMX",
"MXMXMXMXMXMXMXMXMXMXMXMXMXMXMXMXMXMXMXMXh.V V V V V V U.MXMXMXMX;                             MXMXMXu < < < < < < < < < 9.MXMXMX",
"MXMXMXMXMXMXMXMXMXMXMXMXMXMXMXMXMX^.[ V V V V V V V V 6XMXMXMXMX                              :XMXMX].< < < < < < < < < < MXMXMX",
"MXMXMXMXMXMXMXMXMXMXMXMX4XQ.a.R V V V V V V V V V V V MXMXMXMXMX                              <.MXMXMXy < < < < < < < < < q.MXMX",
"MXMXMXMXMXMXMXP.R V V V V V V V V V V V V V V V V V V MXMXMXMXMX&                             . MXMXMX'.< < < < < < < < < < MXMX",
"MXMXMXE.K V V V V V V V V V V V V V V V V V V V V V V $XMXMXMXMX/.                              n.MXMXMX9 < < < < < < < < < r.MX",
"MXMXX.V V V V V V V V V V V V V V V V V V V V V V V V c.MXMXMXMXMXo                             @ MXMXMXr.< < < < < < < < < w MX",
"MXY.V V V V V V V V V V V V V V V V V V V V V V V V V Q MXMXMXMXMXG.                              Z.MXMXMX< < < < < < < < < n MX",
"MXK V V V V V V V V V V V V V V V V V V V V V V V V V V MXMXMXMXMXMX+                             o MXMXMX< < < < < < < 2 9.MXMX",
"MXV V V V V V V V V V V V V V V V V V V V V V V V V V V E.MXMXMXMXMXm.                              (.MXMXs < < < < 6 <XMXMXMXMX",
"MXz.V V V V V V V V V V V V V V V V V V V V V V V V V V V MXMXMXMXMXMX                              $.MXMXb < < < S.MXMXMXMXMXMX",
"MXMXV V V V V V V V V V V V V V V V V V V V V V V V V V V Y.MXMXMXMXMXV.                            *.MXMXc < < 5.MXMXMXMXMXMXMX",
"MXMXf.V V V V V V V V V V V V V V V V V V V V V V V V V V F MXMXMXMXMXMX                            qXMXMXy < 2 MXMXMXMXMXMXMXMX",
"MXMXMXV V V V V V V V V V V V V V V V V V V V V V V V V V V @XMXMXMXMXMXu.                    o <.tXMXMXMX< < 7.MXMXMXMXMXMXMXMX",
"MXMXMXi.V V V V V V V V V V V V V V V V V V V V V V V V V V G MXMXMXMXMXMX&               : _.MXMXMXMXMX.X2 < ].MXMXMXMXMXMXMXMX",
"MXMXMXdXV V V V V V V V V V V V V V V V V V V V V V V V V V V @XMXMXMXMXMXtX-       O N.dXMXMXMXMXMXMXMX6 < < OXMXMXMXMXMXMXMXMX",
"MXMXMXMX} V V V V V V V V V V V V V V V V V V V V V V V V V V { MXMXMXMXMXMXMXMXMXdXMXMXMXMXMXMXMXMXMXn 2 < < 2XMXMXMXMXMXMXMXMX",
"MXMXMXMXMXV V V V V V V V V V V V V V V V V V V V V V V V V V ~ MXMXMXMXMXMXMXMXMXMXMXMXMXMXMXMXMXMXk < < < < }.MXMXMXMXMXMXMXMX",
"MXMXMXMXMX' V V V V V V V V V V V V V V V V V V V V V V V V V g.MXMXMXMXMXMXMXMXMXMXMXMXMXMXMXMX'.0 < < < < < A.MXMXMXMXMXMXMXMX",
"MXMXMXMXMXMXV V V V V V V V V V V V V V V V V V V V V V V V Z MXMXMXMXMXMXMXMXMXMXMXMXMXMXMXF.e < < < < < < < c MXMXMXMXMXMXMXMX",
"MXMXMXMXMXMX~ V V V V V V V V V V V V V V V V V V V V V V U MXMXMXMXMXMXMXMXMXMXMXMXMXMXt.2 < < < < < < < < < < MXMXMXMXMXMXMXMX",
"MXMXMXMXMXMX6XV V V V V V V V V V V V V V V V V V V V s.iXMXMXMXMXMXMXMXMXMXMXMXMXMXMX6 2 < < < < < < < < < < < F.MXMXMXMXMXMXMX",
"MXMXMXMXMXMXMXG V V V V V V V V V V V V V V V V U *XMXMXMXMXMXMXMXMXMXMXMXMXMXMXMXMXm < < < < < < < < < < < < < i MXMXMXMXMXMXMX",
"MXMXMXMXMXMXMX6XZ V V V V V V V V V V V V G b.MXMXMXMXMXMXMXMXMXMXMXMXMXMXMXMXMXMXMX6 < < < < < < < < < < < < < < tXMXMXMXMXMXMX",
"MXMXMXMXMXMXMXMXx.V V V V V V V Z Z V X.&XMXMXMXMXMXMXMXMXMXMXMXMXMXMXMXMXMXMXMXMXMX< < < < < < < < < < < < < < < z MXMXMXMXMXMX",
"MXMXMXMXMXMXMXMXMX#XZ V V V V V U Y.MXMXMXMXMXMXMXMXMXMXMXMXMXMXMXMXMXMXMXMXMXMXMXMXh < < < < < < < < < < < < < < < MXMXMXMXMXMX",
"MXMXMXMXMXMXMXMXMXMXMXpXQ.K.$XpXMXMXMXMXMXMXMXMXMXMXMXMXMXMXMXMXMXMXMXMXMXMXMXMXMXMX2X< < < < < < < < < < < < < < < x MXMXMXMXMX",
"MXMXMXMXMXMXMXMXMXMXMXMXMXMXMXMXMXMXMXMXMXMXMXMXMXMXMXMXMXMXMXMXMXMXMXMXMXMXMXMXMXMXMXl < < < < < < < < < < < < < < < MXMXMXMXMX",
"MXMXMXMXMXMXMXMXMXMXMXMXMXMXMXMXMXMXMXMXMXMXMXMXMXMXMXMXMXMXMXMXMXMXMXMXMXMXMXMXMXMXMX.X< < < < < < < < < < < < < < < MXMXMXMXMX",
"MXMXMXMXMXMXMXMXMXMXMXMXMXMXMXMXMXMXMXMXMXMXMXMXMXMXMXMXMXMXMXMXMXMXMXMXMXMXMXMXMXMXMXMXf < < < < < < < < < < < < < < tXMXMXMXMX",
"MXMXMXMXMXMXMXMXMXMXMXMXMXMXMXMXMXMXMXMXMXMXMXMXMXMXMXMXMXMXMXMXMXMXMXMXMXMXMXMXMXMXMXMXtX< < < < < < < < < < < < < < MXMXMXMXMX",
"MXMXMXMXMXMXMXMXMXMXMXMXMXMXMXMXMXMXMXMXMXMXMXMXMXMXMXMXMXMXMXMXMXMXMXMXMXMXMXMXMXMXMXMXMXf < < < < < < < < 1 1 < < y.MXMXMXMXMX",
"MXMXMXMXMXMXMXMXMXMXMXMXMXMXMXMXMXMXMXMXMXMXMXMXMXMXMXMXMXMXMXMXMXMXMXMXMXMXMXMXMXMXMXMXMX[.< < < < < < < < < 2 < .XMXMXMXMXMXMX",
"MXMXMXMXMXMXMXMXMXMXMXMXMXMXMXMXMXMXMXMXMXMXMXMXMXMXMXMXMXMXMXMXMXMXMXMXMXMXMXMXMXMXMXMXMXMXq < < < < < < < < u MXMXMXMXMXMXMXMX",
"MXMXMXMXMXMXMXMXMXMXMXMXMXMXMXMXMXMXMXMXMXMXMXMXMXMXMXMXMXMXMXMXMXMXMXMXMXMXMXMXMXMXMXMXMXMXMX< < < < < < < 0.MXMXMXMXMXMXMXMXMX",
"MXMXMXMXMXMXMXMXMXMXMXMXMXMXMXMXMXMXMXMXMXMXMXMXMXMXMXMXMXMXMXMXMXMXMXMXMXMXMXMXMXMXMXMXMXMXMXe < 1 < < < }.MXMXMXMXMXMXMXMXMXMX",
"MXMXMXMXMXMXMXMXMXMXMXMXMXMXMXMXMXMXMXMXMXMXMXMXMXMXMXMXMXMXMXMXMXMXMXMXMXMXMXMXMXMXMXMXMXMXMXMXp 2 < g MXMXMXMXMXMXMXMXMXMXMXMX",
"MXMXMXMXMXMXMXMXMXMXMXMXMXMXMXMXMXMXMXMXMXMXMXMXMXMXMXMXMXMXMXMXMXMXMXMXMXMXMXMXMXMXMXMXMXMXMXMXMXtXtXMXMXMXMXMXMXMXMXMXMXMXMXMX",
"MXMXMXMXMXMXMXMXMXMXMXMXMXMXMXMXMXMXMXMXMXMXMXMXMXMXMXMXMXMXMXMXMXMXMXMXMXMXMXMXMXMXMXMXMXMXMXMXMXMXMXMXMXMXMXMXMXMXMXMXMXMXMXMX"
};
