/* XPM */
static char *GDALogo__[] = {
/* columns rows colors chars-per-pixel */
"32 32 114 2",
"   c #5FB957",
".  c #63BB5C",
"X  c #67BD60",
"o  c #6ABE63",
"O  c #72C26C",
"+  c #76C470",
"@  c #7AC674",
"#  c #7EC778",
"$  c #EA8A0E",
"%  c #EA8D14",
"&  c #EB911C",
"*  c #EB9421",
"=  c #EC992C",
"-  c #ED9E35",
";  c #ED9F38",
":  c #EEA13E",
">  c #EEA342",
",  c #EFA748",
"<  c #EFA94D",
"1  c #F0AF59",
"2  c #F1B15E",
"3  c #F1B465",
"4  c #F2B669",
"5  c #F2BA6E",
"6  c #F3BC74",
"7  c #81C87B",
"8  c #F4C07D",
"9  c #54469B",
"0  c #56499D",
"q  c #594C9F",
"w  c #5B4EA0",
"e  c #5F52A2",
"r  c #6255A4",
"t  c #6458A5",
"y  c #685CA7",
"u  c #6A5FA9",
"i  c #6D62AA",
"p  c #766BAF",
"a  c #796DB1",
"s  c #7D72B3",
"d  c #8176B6",
"f  c #8278B6",
"g  c #867DB9",
"h  c #887EBA",
"j  c #8980BB",
"k  c #85CA80",
"l  c #89CC83",
"z  c #90CF8B",
"x  c #94D08F",
"c  c #97D292",
"v  c #9BD497",
"b  c #9CD498",
"n  c #A3D79F",
"m  c #A5D8A1",
"M  c #AADAA6",
"N  c #AEDCAB",
"B  c #B1DDAE",
"V  c #B6DFB2",
"C  c #B6E0B2",
"Z  c #BAE1B7",
"A  c #BCE3BB",
"S  c #F5C78B",
"D  c #F6CC96",
"F  c #F6CE9A",
"G  c #F7D4A6",
"H  c #F9D3A4",
"J  c #F7D5AA",
"K  c #F8D9AF",
"L  c #F9DCB6",
"P  c #F9DFBC",
"I  c #C1E5BE",
"U  c #948BC1",
"Y  c #A39BCA",
"T  c #AAA3CE",
"R  c #AEA7D0",
"E  c #B3ADD3",
"W  c #B7B1D5",
"Q  c #B9B3D6",
"!  c #BCB6D8",
"~  c #BFBADA",
"^  c #C2BDDC",
"/  c #C7C2DE",
"(  c #C8C3DF",
")  c #C5E6C3",
"_  c #CCEBCB",
"`  c #CEEDD1",
"'  c #D7EDD5",
"]  c #DCF2DF",
"[  c #FAE2C3",
"{  c #FCE8CF",
"}  c #FCEAD5",
"|  c #FCEDDA",
" . c #CBC6E1",
".. c #D2CEE5",
"X. c #D3D0E6",
"o. c #D9D6E9",
"O. c #DDDAEB",
"+. c #E0DDED",
"@. c #E3E1EF",
"#. c #E7F5E6",
"$. c #EAF6EA",
"%. c #EDF8ED",
"&. c #FDF2E3",
"*. c #FEF6ED",
"=. c #F0F8EF",
"-. c #E6E3F1",
";. c #EDEBF5",
":. c #F1EEF7",
">. c #F4FBF3",
",. c #FEF9F1",
"<. c #F5F3F9",
"1. c #F9F7FC",
"2. c #F6FDFA",
"3. c #FFFFFF",
/* pixels */
"3.3.3.3.3.3.3.3.3.3.3.3.3.3.3.3.3.3.3.3.3.3.3.3.3.3.3.3.3.3.3.3.",
"3.3.3.3.3.3.3.3.3.3.3.3.3.3.3.3.3.3.3.3.3.3.3.3.3.3.3.3.3.3.3.3.",
"3.3.3.3.3.3.3.3.3.3.1. .W / ..o.-.1.3.3.3.3.3.3.3.3.3.3.3.3.3.3.",
"3.3.3.3.3.3.3.3.3.3.-.r 9 q q w t s ..3.%.v v M Z $.3.3.3.3.3.3.",
"3.3.3.3.3.3.3.3.3.3.1.d q e e e w 0 i ;.%.O       # %.3.3.3.3.3.",
"3.3.3.3.3.3.3.3.3.3.3.( w e e e e e 0 T 3.m . O o . N 3.3.3.3.3.",
"3.3.3.3.3.3.3.3.3.3.3.1.s w e e e e e i :.$.O o o o + >.3.3.3.3.",
"3.3.3.3.3.3.3.3.3.3.3.3.Q q e e e e e 0 R 3.v . o o . B 3.3.3.3.",
"3.3.3.3.3.3.3.3.3.3.3.3.+.r e e e e w q i <.) . . .   7 1.3.3.3.",
"3.3.3.3.3.3.3.3.3.3.3.3.;.i e q 9 0 r t f :._ . @ N A ] 3.3.3.3.",
"3.3.3.3.3.3.3.3.3.3.3.3.+.r 0 u Y  .O.-.1.3.n + $.3.3.3.,.3.3.3.",
"3.3.3.3.3.3.3.3.3.3.3.3.Y 9 s -.3.3.3.3.3.I o N 3.D 3 , > L 3.3.",
"3.3.3.3.3.3.3.3.3.3.3.~ e t +.3.>.' I M l . . A &.= % % % ; *.3.",
"3.3.3.3.3.3.3.3.<.X.j w q g 3.2.x . . . . o . m 3.4 % * & % F 3.",
"3.3.3.;.o. .T U a w 0 e q U 3.>.@ . o o o o o # 2.{ * * * % > ,.",
"3...f i w 0 q 0 q e e e q h 3.3.C . o o o o o . ) 3.1 & * & $ J ",
";.t 9 q e w e r e e w r w i ;.3.>.+ o o o o o X k 2.H & & % = P ",
"+.q q e r e e q e e r w r q ^ 3.3.B . o o o o o . ` } & = D &.3.",
"1.f 0 r w r e r e e e r r q s 1.3.%.O o o o . . . ` } * K 3.3.3.",
"3.( 0 e e e e r e e e e e e q / 3.3.B     . O c _ 3.H > 3.3.3.3.",
"3.1.s q r e e q e w r w e e q f 1.3.2.B z C #.3.3.*.: 2 3.3.3.3.",
"3.3./ q q r e r e r w r e e q i <.3.3.3.3.3.3.3.| 1 % 1 3.3.3.3.",
"3.3.1.a q r q r r r r q q 9 r E 3.3.3.3.3.3.} 8 = % & : *.3.3.3.",
"3.3.3.~ q w r r q q q q p T +.3.3.3.3.3.3.G * % & * * & L 3.3.3.",
"3.3.3.<.d 9 0 0 0 y U  .<.3.3.3.3.3.3.3.3.< % * & * * & 1 3.3.3.",
"3.3.3.3.;.Y f j W -.3.3.3.3.3.3.3.3.3.3.3.6 % * * * * & & [ 3.3.",
"3.3.3.3.3.3.3.3.3.3.3.3.3.3.3.3.3.3.3.3.3.} * & & * * * % 3 3.3.",
"3.3.3.3.3.3.3.3.3.3.3.3.3.3.3.3.3.3.3.3.3.3.6 % * * & * % 1 3.3.",
"3.3.3.3.3.3.3.3.3.3.3.3.3.3.3.3.3.3.3.3.3.3.} * & & & % : [ 3.3.",
"3.3.3.3.3.3.3.3.3.3.3.3.3.3.3.3.3.3.3.3.3.3.3.3 % & % 2 | 3.3.3.",
"3.3.3.3.3.3.3.3.3.3.3.3.3.3.3.3.3.3.3.3.3.3.3.} - * S 1.3.3.3.3.",
"3.3.3.3.3.3.3.3.3.3.3.3.3.3.3.3.3.3.3.3.3.3.3.3.&.| 3.3.3.3.3.3."
};
