/* XPM */
static char *GDALogo__[] = {
/* columns rows colors chars-per-pixel */
"16 16 143 2",
"   c #53B44A",
".  c #58B650",
"X  c #59B751",
"o  c #5DB956",
"O  c #60BB58",
"+  c #61BA59",
"@  c #63BB5C",
"#  c #69BE62",
"$  c #69BE63",
"%  c #68BF64",
"&  c #6EC26C",
"*  c #73C26D",
"=  c #E88401",
"-  c #E98707",
";  c #E98A0D",
":  c #ED8A0E",
">  c #EA8D12",
",  c #EA8D14",
"<  c #EA8E16",
"1  c #EA8E17",
"2  c #EA8F17",
"3  c #EA911B",
"4  c #EC901B",
"5  c #EB921E",
"6  c #EC9B30",
"7  c #ED9C32",
"8  c #EEA444",
"9  c #F6A74A",
"0  c #F1B05D",
"q  c #F2BA70",
"w  c #82CB7A",
"e  c #F4C17F",
"r  c #4F4099",
"t  c #51439A",
"y  c #52449B",
"u  c #54469B",
"i  c #55479C",
"p  c #55489C",
"a  c #56489C",
"s  c #56489D",
"d  c #57499D",
"f  c #574A9D",
"g  c #574A9E",
"h  c #584B9E",
"j  c #5B4EA0",
"k  c #5C4FA1",
"l  c #5E4FA3",
"z  c #5D50A1",
"x  c #5F52A2",
"c  c #6053A3",
"v  c #6254A4",
"b  c #675AA7",
"n  c #675BA7",
"m  c #6C5FAA",
"M  c #6C61AA",
"N  c #7063AD",
"B  c #7C71B2",
"V  c #8277B6",
"C  c #8C82BC",
"Z  c #8C83BC",
"A  c #8BCD85",
"S  c #83CE8A",
"D  c #90CF8B",
"F  c #8DD284",
"G  c #91D38A",
"H  c #94D79C",
"J  c #9ED79B",
"K  c #9EDCA8",
"L  c #ACE1A3",
"P  c #B2E3A9",
"I  c #A8E1B3",
"U  c #B8E1B8",
"Y  c #F3C280",
"T  c #F5C78C",
"R  c #FAC68A",
"E  c #F5CB94",
"W  c #F9CE98",
"Q  c #FCCD99",
"!  c #F7D4A5",
"~  c #F9DAB2",
"^  c #F8DBB4",
"/  c #F9DCB7",
"(  c #988FC3",
")  c #9E95C6",
"_  c #9F96C7",
"`  c #9E91CB",
"'  c #9F95C8",
"]  c #A29AC9",
"[  c #A9A2CD",
"{  c #ADA6CF",
"}  c #B1AAD1",
"|  c #B4ADD3",
" . c #B1A2D8",
".. c #B9B3D6",
"X. c #BCB7D9",
"o. c #BFB9DA",
"O. c #C4BFDD",
"+. c #C4BBE0",
"@. c #D7E7C7",
"#. c #D2EFCD",
"$. c #D9EED7",
"%. c #D6F3D0",
"&. c #DBF9D3",
"*. c #FBE1C1",
"=. c #FAE3C6",
"-. c #FAE4C8",
";. c #E1ECD2",
":. c #FBEAD4",
">. c #FBEAD5",
",. c #E0F1DE",
"<. c #CFCBE3",
"1. c #D3CEE5",
"2. c #D2CFE5",
"3. c #D2D1E3",
"4. c #D3D0E6",
"5. c #DAD6E9",
"6. c #DBD6EB",
"7. c #E1D9F1",
"8. c #E5DEF4",
"9. c #E7E9EE",
"0. c #E8F7E5",
"q. c #EDF7EC",
"w. c #E4F9EF",
"e. c #FEF0E0",
"r. c #FCF4E8",
"t. c #FDF7EE",
"y. c #F1FBEE",
"u. c #EAE8F3",
"i. c #ECEAF4",
"p. c #EEEBF7",
"a. c #FDF8F1",
"s. c #FEFBF6",
"d. c #F7F4FB",
"f. c #F7F7FA",
"g. c #F9F6FD",
"h. c #F3FFFD",
"j. c #FEFCF9",
"k. c #FCFEFB",
"l. c #FAFAFC",
"z. c #FCFCFD",
"x. c #FFFDFC",
"c. c #FEFEFE",
"v. c gray100",
/* pixels */
"v.v.v.v.v.v.v.v.v.v.v.v.v.v.v.v.",
"v.v.v.v.v.6.) { o.d.y.$.q.v.v.v.",
"v.v.v.v.v.2.u i r ` #.O * ,.v.v.",
"v.v.v.v.v.v.C p h x 3.F   D k.v.",
"v.v.v.v.v.v.X.t i y  .P % H h.v.",
"v.v.v.v.v.v.[ M +.7.9.J @.*.=.v.",
"v.v.v.v.f.O.m 6.&.L w S / : 5 :.",
"v.<.} ( B p N g.G X O & ;.9 = q ",
"| i p p p j x 8.%.@ # o K R 4 E ",
"1.x k x v x p ' v.A X # I W ~ v.",
"v.C p x x x u v p.0.U w.e.0 r.v.",
"v.2.h h p p b ] f.v.v.Q 7 3 :.v.",
"v.v.) b V ..u.v.v.v.-.; 1 , e v.",
"v.v.v.p.v.v.v.v.v.v.a.8 1 , 6 t.",
"v.v.v.v.v.v.v.v.v.v.v.! - 1 T s.",
"v.v.v.v.v.v.v.v.v.v.v.s.e ^ v.v."
};
